<svg width="61" height="70" viewBox="0 0 61 70" fill="none" xmlns="http://www.w3.org/2000/svg">
<path fill-rule="evenodd" clip-rule="evenodd" d="M54.6458 62.7083H6.35415C3.54688 62.7083 1.27081 60.0965 1.27081 56.875V13.125C1.27081 9.90354 3.54688 7.29166 6.35415 7.29166H54.6458C57.4531 7.29166 59.7291 9.90354 59.7291 13.125V56.875C59.7291 60.0965 57.4531 62.7083 54.6458 62.7083ZM57.1875 13.125C57.1875 11.515 56.0488 10.2083 54.6458 10.2083H6.35415C4.95115 10.2083 3.81248 11.515 3.81248 13.125V21.875H57.1875V13.125ZM57.1875 24.7917H3.81248V56.875C3.81248 58.485 4.95115 59.7917 6.35415 59.7917H54.6458C56.0488 59.7917 57.1875 58.485 57.1875 56.875V24.7917ZM52.1041 45.2083H49.5625C48.861 45.2083 48.2916 44.5565 48.2916 43.75V40.8333C48.2916 40.0283 48.861 39.375 49.5625 39.375H52.1041C52.8069 39.375 53.375 40.0283 53.375 40.8333V43.75C53.375 44.5565 52.8069 45.2083 52.1041 45.2083ZM52.1041 35H49.5625C48.861 35 48.2916 34.3481 48.2916 33.5417V30.625C48.2916 29.8185 48.861 29.1667 49.5625 29.1667H52.1041C52.8069 29.1667 53.375 29.8185 53.375 30.625V33.5417C53.375 34.3481 52.8069 35 52.1041 35ZM41.9375 45.2083H39.3958C38.6943 45.2083 38.125 44.5565 38.125 43.75V40.8333C38.125 40.0283 38.6943 39.375 39.3958 39.375H41.9375C42.6403 39.375 43.2083 40.0283 43.2083 40.8333V43.75C43.2083 44.5565 42.6403 45.2083 41.9375 45.2083ZM41.9375 35H39.3958C38.6943 35 38.125 34.3481 38.125 33.5417V30.625C38.125 29.8185 38.6943 29.1667 39.3958 29.1667H41.9375C42.6403 29.1667 43.2083 29.8185 43.2083 30.625V33.5417C43.2083 34.3481 42.6403 35 41.9375 35ZM31.7708 45.2083H29.2291C28.5264 45.2083 27.9583 44.5565 27.9583 43.75V40.8333C27.9583 40.0283 28.5264 39.375 29.2291 39.375H31.7708C32.4736 39.375 33.0416 40.0283 33.0416 40.8333V43.75C33.0416 44.5565 32.4736 45.2083 31.7708 45.2083ZM31.7708 35H29.2291C28.5264 35 27.9583 34.3481 27.9583 33.5417V30.625C27.9583 29.8185 28.5264 29.1667 29.2291 29.1667H31.7708C32.4736 29.1667 33.0416 29.8185 33.0416 30.625V33.5417C33.0416 34.3481 32.4736 35 31.7708 35ZM21.6041 55.4167H19.0625C18.3597 55.4167 17.7916 54.7648 17.7916 53.9583V51.0417C17.7916 50.2352 18.3597 49.5833 19.0625 49.5833H21.6041C22.3069 49.5833 22.875 50.2352 22.875 51.0417V53.9583C22.875 54.7648 22.3069 55.4167 21.6041 55.4167ZM21.6041 45.2083H19.0625C18.3597 45.2083 17.7916 44.5565 17.7916 43.75V40.8333C17.7916 40.0283 18.3597 39.375 19.0625 39.375H21.6041C22.3069 39.375 22.875 40.0283 22.875 40.8333V43.75C22.875 44.5565 22.3069 45.2083 21.6041 45.2083ZM21.6041 35H19.0625C18.3597 35 17.7916 34.3481 17.7916 33.5417V30.625C17.7916 29.8185 18.3597 29.1667 19.0625 29.1667H21.6041C22.3069 29.1667 22.875 29.8185 22.875 30.625V33.5417C22.875 34.3481 22.3069 35 21.6041 35ZM11.4375 55.4167H8.89581C8.19304 55.4167 7.62498 54.7648 7.62498 53.9583V51.0417C7.62498 50.2352 8.19304 49.5833 8.89581 49.5833H11.4375C12.1403 49.5833 12.7083 50.2352 12.7083 51.0417V53.9583C12.7083 54.7648 12.1403 55.4167 11.4375 55.4167ZM11.4375 45.2083H8.89581C8.19304 45.2083 7.62498 44.5565 7.62498 43.75V40.8333C7.62498 40.0283 8.19304 39.375 8.89581 39.375H11.4375C12.1403 39.375 12.7083 40.0283 12.7083 40.8333V43.75C12.7083 44.5565 12.1403 45.2083 11.4375 45.2083ZM29.2291 49.5833H31.7708C32.4736 49.5833 33.0416 50.2352 33.0416 51.0417V53.9583C33.0416 54.7648 32.4736 55.4167 31.7708 55.4167H29.2291C28.5264 55.4167 27.9583 54.7648 27.9583 53.9583V51.0417C27.9583 50.2352 28.5264 49.5833 29.2291 49.5833Z" fill="white"/>
</svg>
