<svg width="78" height="75" viewBox="0 0 78 75" fill="none" xmlns="http://www.w3.org/2000/svg">
<path fill-rule="evenodd" clip-rule="evenodd" d="M56.875 62.5H17.875V62.4203C9.66388 61.6359 3.25 54.9781 3.25 46.875C3.25 38.7703 9.6655 32.1109 17.8782 31.3297C17.8782 31.3016 17.875 31.2781 17.875 31.25C17.875 20.8953 26.6061 12.5 37.375 12.5C47.0389 12.5 55.0404 19.2672 56.5841 28.1391C56.6832 28.1375 56.7759 28.125 56.875 28.125C66.7469 28.125 74.75 35.8203 74.75 45.3125C74.75 54.8047 66.7469 62.5 56.875 62.5ZM56.875 31.25C56.329 31.25 55.7911 31.2828 55.2614 31.3437L55.2581 31.3359C55.237 31.3375 55.2208 31.3484 55.1996 31.3484C54.3075 31.3484 53.586 30.6563 53.5779 29.8016L53.5486 29.7984C52.7849 21.8484 45.8396 15.625 37.375 15.625C28.4001 15.625 21.125 22.6203 21.125 31.25C21.125 31.7141 21.1591 32.1672 21.203 32.6187L21.1868 32.6234C21.1949 32.6875 21.2258 32.7453 21.2258 32.8125C21.2258 33.6609 20.5205 34.3422 19.6446 34.3656L19.6381 34.3875C19.5926 34.3859 19.5471 34.375 19.5 34.375C12.3207 34.375 6.5 39.9719 6.5 46.875C6.5 53.2484 11.4644 58.4969 17.875 59.2672V59.375H56.875C64.9529 59.375 71.5 53.0797 71.5 45.3125C71.5 37.5453 64.9529 31.25 56.875 31.25Z" fill="white"/>
</svg>
