<svg width="144" height="42" viewBox="0 0 144 42" fill="none" xmlns="http://www.w3.org/2000/svg">
<rect x="137.68" width="6.10738" height="19.9878" rx="3.05369" transform="rotate(43.188 137.68 0)" fill="#00C2FF"/>
<rect x="139.547" y="9.36795" width="6.10738" height="19.9878" rx="3.05369" transform="rotate(43.188 139.547 9.36795)" fill="#00CC80"/>
<path d="M12.926 32.964V36H0.759V33.585L6.969 27.72C7.62833 27.0913 8.073 26.5547 8.303 26.11C8.533 25.65 8.648 25.1977 8.648 24.753C8.648 24.109 8.42567 23.6183 7.981 23.281C7.55167 22.9283 6.91533 22.752 6.072 22.752C5.36667 22.752 4.73033 22.89 4.163 23.166C3.59567 23.4267 3.12033 23.8253 2.737 24.362L0.023 22.614C0.651667 21.6787 1.518 20.9503 2.622 20.429C3.726 19.8923 4.991 19.624 6.417 19.624C7.613 19.624 8.65567 19.8233 9.545 20.222C10.4497 20.6053 11.1473 21.1573 11.638 21.878C12.144 22.5833 12.397 23.419 12.397 24.385C12.397 25.259 12.213 26.0793 11.845 26.846C11.477 27.6127 10.764 28.4867 9.706 29.468L6.003 32.964H12.926ZM22.1695 25.903C23.1968 25.903 24.1322 26.11 24.9755 26.524C25.8188 26.938 26.4858 27.5283 26.9765 28.295C27.4672 29.0463 27.7125 29.9203 27.7125 30.917C27.7125 31.9903 27.4442 32.9333 26.9075 33.746C26.3708 34.5587 25.6348 35.1873 24.6995 35.632C23.7795 36.0613 22.7522 36.276 21.6175 36.276C19.3635 36.276 17.6002 35.586 16.3275 34.206C15.0548 32.826 14.4185 30.8557 14.4185 28.295C14.4185 26.4703 14.7635 24.9063 15.4535 23.603C16.1435 22.2997 17.1018 21.3107 18.3285 20.636C19.5705 19.9613 21.0042 19.624 22.6295 19.624C23.4882 19.624 24.3085 19.7237 25.0905 19.923C25.8878 20.107 26.5625 20.3753 27.1145 20.728L25.7345 23.465C24.9372 22.9283 23.9328 22.66 22.7215 22.66C21.3568 22.66 20.2758 23.0587 19.4785 23.856C18.6812 24.6533 18.2518 25.811 18.1905 27.329C19.1412 26.3783 20.4675 25.903 22.1695 25.903ZM21.4105 33.493C22.2078 33.493 22.8518 33.2783 23.3425 32.849C23.8485 32.4197 24.1015 31.837 24.1015 31.101C24.1015 30.365 23.8485 29.7823 23.3425 29.353C22.8518 28.9083 22.1925 28.686 21.3645 28.686C20.5518 28.686 19.8848 28.916 19.3635 29.376C18.8422 29.8207 18.5815 30.3957 18.5815 31.101C18.5815 31.8063 18.8345 32.3813 19.3405 32.826C19.8465 33.2707 20.5365 33.493 21.4105 33.493ZM34.813 23.442C36.7297 23.442 38.2017 23.902 39.229 24.822C40.2563 25.7267 40.77 27.099 40.77 28.939V36H37.412V34.459C36.7373 35.609 35.48 36.184 33.64 36.184C32.6893 36.184 31.8613 36.023 31.156 35.701C30.466 35.379 29.937 34.9343 29.569 34.367C29.201 33.7997 29.017 33.1557 29.017 32.435C29.017 31.285 29.4463 30.3803 30.305 29.721C31.179 29.0617 32.5207 28.732 34.33 28.732H37.182C37.182 27.95 36.9443 27.352 36.469 26.938C35.9937 26.5087 35.2807 26.294 34.33 26.294C33.6707 26.294 33.019 26.4013 32.375 26.616C31.7463 26.8153 31.2097 27.0913 30.765 27.444L29.477 24.937C30.1517 24.4617 30.9567 24.0937 31.892 23.833C32.8427 23.5723 33.8163 23.442 34.813 23.442ZM34.537 33.769C35.1503 33.769 35.6947 33.631 36.17 33.355C36.6453 33.0637 36.9827 32.642 37.182 32.09V30.825H34.721C33.249 30.825 32.513 31.308 32.513 32.274C32.513 32.734 32.6893 33.102 33.042 33.378C33.41 33.6387 33.9083 33.769 34.537 33.769ZM51.5383 23.442C53.0717 23.442 54.306 23.902 55.2413 24.822C56.192 25.742 56.6673 27.1067 56.6673 28.916V36H53.0793V29.468C53.0793 28.4867 52.8647 27.7583 52.4353 27.283C52.006 26.7923 51.385 26.547 50.5723 26.547C49.6677 26.547 48.947 26.8307 48.4103 27.398C47.8737 27.95 47.6053 28.778 47.6053 29.882V36H44.0173V23.626H47.4443V25.075C47.9197 24.5537 48.51 24.155 49.2153 23.879C49.9207 23.5877 50.695 23.442 51.5383 23.442ZM72.6584 18.934V36H69.2314V34.574C68.3421 35.6473 67.0541 36.184 65.3674 36.184C64.2021 36.184 63.1441 35.9233 62.1934 35.402C61.2581 34.8807 60.5221 34.137 59.9854 33.171C59.4488 32.205 59.1804 31.0857 59.1804 29.813C59.1804 28.5403 59.4488 27.421 59.9854 26.455C60.5221 25.489 61.2581 24.7453 62.1934 24.224C63.1441 23.7027 64.2021 23.442 65.3674 23.442C66.9468 23.442 68.1811 23.9403 69.0704 24.937V18.934H72.6584ZM65.9884 33.24C66.8931 33.24 67.6444 32.9333 68.2424 32.32C68.8404 31.6913 69.1394 30.8557 69.1394 29.813C69.1394 28.7703 68.8404 27.9423 68.2424 27.329C67.6444 26.7003 66.8931 26.386 65.9884 26.386C65.0684 26.386 64.3094 26.7003 63.7114 27.329C63.1134 27.9423 62.8144 28.7703 62.8144 29.813C62.8144 30.8557 63.1134 31.6913 63.7114 32.32C64.3094 32.9333 65.0684 33.24 65.9884 33.24ZM79.9122 23.902H83.0862V26.662H80.0042V36H76.4162V26.662H74.5072V23.902H76.4162V23.35C76.4162 21.9393 76.8302 20.82 77.6582 19.992C78.5016 19.164 79.6822 18.75 81.2002 18.75C81.7369 18.75 82.2429 18.8113 82.7182 18.934C83.2089 19.0413 83.6152 19.2023 83.9372 19.417L82.9942 22.016C82.5802 21.7247 82.0972 21.579 81.5452 21.579C80.4566 21.579 79.9122 22.177 79.9122 23.373V23.902ZM90.6045 36.184C89.3012 36.184 88.1282 35.9157 87.0855 35.379C86.0582 34.827 85.2532 34.068 84.6705 33.102C84.0879 32.136 83.7965 31.0397 83.7965 29.813C83.7965 28.5863 84.0879 27.49 84.6705 26.524C85.2532 25.558 86.0582 24.8067 87.0855 24.27C88.1282 23.718 89.3012 23.442 90.6045 23.442C91.9079 23.442 93.0732 23.718 94.1005 24.27C95.1279 24.8067 95.9329 25.558 96.5155 26.524C97.0982 27.49 97.3895 28.5863 97.3895 29.813C97.3895 31.0397 97.0982 32.136 96.5155 33.102C95.9329 34.068 95.1279 34.827 94.1005 35.379C93.0732 35.9157 91.9079 36.184 90.6045 36.184ZM90.6045 33.24C91.5245 33.24 92.2759 32.9333 92.8585 32.32C93.4565 31.6913 93.7555 30.8557 93.7555 29.813C93.7555 28.7703 93.4565 27.9423 92.8585 27.329C92.2759 26.7003 91.5245 26.386 90.6045 26.386C89.6845 26.386 88.9255 26.7003 88.3275 27.329C87.7295 27.9423 87.4305 28.7703 87.4305 29.813C87.4305 30.8557 87.7295 31.6913 88.3275 32.32C88.9255 32.9333 89.6845 33.24 90.6045 33.24ZM112.254 23.626V36H108.85V34.528C108.375 35.0647 107.807 35.4787 107.148 35.77C106.489 36.046 105.776 36.184 105.009 36.184C103.384 36.184 102.096 35.7163 101.145 34.781C100.194 33.8457 99.7188 32.458 99.7188 30.618V23.626H103.307V30.089C103.307 32.0823 104.143 33.079 105.814 33.079C106.673 33.079 107.363 32.803 107.884 32.251C108.405 31.6837 108.666 30.848 108.666 29.744V23.626H112.254ZM119.005 25.259C119.434 24.661 120.009 24.2087 120.73 23.902C121.466 23.5953 122.309 23.442 123.26 23.442V26.754C122.861 26.7233 122.593 26.708 122.455 26.708C121.428 26.708 120.623 26.9993 120.04 27.582C119.457 28.1493 119.166 29.008 119.166 30.158V36H115.578V23.626H119.005V25.259Z" fill="black"/>
</svg>
