<svg width="591" height="262" viewBox="0 0 591 262" fill="none" xmlns="http://www.w3.org/2000/svg">
<path d="M591 262H223V132H591V262Z" fill="url(#paint0_linear)"/>
<line x1="2.73443" y1="3.27687" x2="115.819" y2="69.0593" stroke="#00C2FF" stroke-width="4" stroke-linecap="round" stroke-linejoin="round" stroke-dasharray="14 17"/>
<path d="M191 86.3091L137 117.727L83 86.3091L137 53.9091L191 86.3091Z" fill="#4EEDFF"/>
<path d="M191 150.127L137 181.545L83 150.127L137 117.727L191 150.127Z" fill="#00C2FF"/>
<path d="M83 150.127V86.3091L137 117.727V181.545L83 150.127Z" fill="#00C2FF"/>
<path d="M191 150.127V86.3091L137 117.727V181.545L191 150.127Z" fill="#0060B4"/>
<path d="M89.9633 104.63V100.055L93.5782 102.307V106.883L89.9633 104.63Z" fill="#C9F2FF"/>
<path d="M89.9633 113.065V108.489L93.5782 110.742V115.318L89.9633 113.065Z" fill="#C9F2FF"/>
<path d="M89.9633 121.5V116.924L93.5782 119.177V123.753L89.9633 121.5Z" fill="#C9F2FF"/>
<path d="M89.9633 129.935V125.359L93.5782 127.612V132.187L89.9633 129.935Z" fill="#C9F2FF"/>
<path d="M89.9633 138.37V133.794L93.5782 136.047V140.622L89.9633 138.37Z" fill="#C9F2FF"/>
<path d="M89.9633 146.805V142.229L93.5782 144.482V149.057L89.9633 146.805Z" fill="#C9F2FF"/>
<path d="M96.9453 150.984V146.408L114.604 157.004V161.418L96.9453 150.984Z" fill="#0058CB"/>
<path d="M96.9453 141.713V137.138L114.604 147.733V152.147L96.9453 141.713Z" fill="#0058CB"/>
<path d="M96.9453 133.325V128.75L114.604 139.345V143.76L96.9453 133.325Z" fill="#0058CB"/>
<path d="M96.9453 124.938V120.362L114.604 130.957V135.372L96.9453 124.938Z" fill="#0058CB"/>
<path d="M96.9453 116.55V111.974L114.604 122.569V126.984L96.9453 116.55Z" fill="#0058CB"/>
<path d="M96.9453 108.162V103.586L114.604 114.181V118.596L96.9453 108.162Z" fill="#0058CB"/>
<path d="M118.345 120.83V116.255L128.378 122.274V126.689L118.345 120.83Z" fill="#8EF4FF"/>
<path d="M118.345 129.176V124.6L128.378 130.62V135.034L118.345 129.176Z" fill="#8EF4FF"/>
<path d="M118.345 137.521V132.945L128.378 138.965V143.38L118.345 137.521Z" fill="#8EF4FF"/>
<path d="M118.345 145.867V141.291L128.378 147.31V151.725L118.345 145.867Z" fill="#8EF4FF"/>
<path d="M118.345 154.212V149.636L128.378 155.656V160.071L118.345 154.212Z" fill="#8EF4FF"/>
<path d="M118.345 163.539V158.964L128.378 164.983V169.398L118.345 163.539Z" fill="#8EF4FF"/>
<path d="M184.015 104.63V100.055L180.4 102.307V106.883L184.015 104.63Z" fill="#C9F2FF"/>
<path d="M175.56 109.677V105.101L157.901 115.697V120.111L175.56 109.677Z" fill="#4ED5FF"/>
<ellipse cx="164.071" cy="135.877" rx="12.3045" ry="15.904" transform="rotate(14.5616 164.071 135.877)" fill="#002556"/>
<path d="M333 68L223 132L113 68L223 2L333 68Z" fill="#4EEDFF"/>
<path d="M333 198L223 262L113 198L223 132L333 198Z" fill="#00C2FF"/>
<path d="M113 198V68L223 132V262L113 198Z" fill="#00C2FF"/>
<path d="M333 198V68L223 132V262L333 198Z" fill="#0060B4"/>
<path d="M127.184 105.321V96L134.548 100.589V109.909L127.184 105.321Z" fill="#C9F2FF"/>
<path d="M127.184 122.503V113.182L134.548 117.771V127.092L127.184 122.503Z" fill="#C9F2FF"/>
<path d="M127.184 139.685V130.364L134.548 134.953V144.274L127.184 139.685Z" fill="#C9F2FF"/>
<path d="M127.184 156.867V147.546L134.548 152.135V161.456L127.184 156.867Z" fill="#C9F2FF"/>
<path d="M127.184 174.049V164.729L134.548 169.317V178.638L127.184 174.049Z" fill="#C9F2FF"/>
<path d="M127.184 191.231V181.911L134.548 186.499V195.82L127.184 191.231Z" fill="#C9F2FF"/>
<path d="M141.407 199.745V190.424L177.378 212.007V221L141.407 199.745Z" fill="#0058CB"/>
<path d="M141.407 180.86V171.54L177.378 193.122V202.115L141.407 180.86Z" fill="#0058CB"/>
<path d="M141.407 163.774V154.453L177.378 176.036V185.029L141.407 163.774Z" fill="#0058CB"/>
<path d="M141.407 146.688V137.367L177.378 158.95V167.942L141.407 146.688Z" fill="#0058CB"/>
<path d="M141.407 129.601V120.281L177.378 141.863V150.856L141.407 129.601Z" fill="#0058CB"/>
<path d="M141.407 112.515V103.194L177.378 124.777V133.77L141.407 112.515Z" fill="#0058CB"/>
<path d="M185 138.321V129L205.437 141.262V150.255L185 138.321Z" fill="#8EF4FF"/>
<path d="M185 155.321V146L205.437 158.262V167.255L185 155.321Z" fill="#8EF4FF"/>
<path d="M185 172.321V163L205.437 175.262V184.255L185 172.321Z" fill="#8EF4FF"/>
<path d="M185 189.321V180L205.437 192.262V201.255L185 189.321Z" fill="#8EF4FF"/>
<path d="M185 206.321V197L205.437 209.262V218.255L185 206.321Z" fill="#8EF4FF"/>
<path d="M185 225.321V216L205.437 228.262V237.255L185 225.321Z" fill="#8EF4FF"/>
<path d="M318.771 105.321V96L311.407 100.589V109.909L318.771 105.321Z" fill="#C9F2FF"/>
<path d="M301.548 115.601V106.281L265.577 127.863V136.856L301.548 115.601Z" fill="#4ED5FF"/>
<ellipse cx="278.144" cy="168.972" rx="25.0648" ry="32.397" transform="rotate(14.5616 278.144 168.972)" fill="#002556"/>
<line x1="259.734" y1="162.277" x2="372.819" y2="228.059" stroke="#00C2FF" stroke-width="4" stroke-linecap="round" stroke-linejoin="round" stroke-dasharray="14 17"/>
<defs>
<linearGradient id="paint0_linear" x1="60.5" y1="228.5" x2="437.5" y2="228.5" gradientUnits="userSpaceOnUse">
<stop/>
<stop offset="0.802083" stop-color="#C4C4C4" stop-opacity="0"/>
</linearGradient>
</defs>
</svg>
