<svg width="62" height="67" viewBox="0 0 62 67" fill="none" xmlns="http://www.w3.org/2000/svg">
<path fill-rule="evenodd" clip-rule="evenodd" d="M60.7084 56.229C60.7084 60.1116 57.8176 63.2576 54.25 63.2576H7.75002C4.18244 63.2576 1.29169 60.1116 1.29169 56.229V15.463C1.29169 12.3577 3.60506 9.84005 6.45835 9.84005H32.5126L42.9738 5.71565C43.6364 5.45278 44.3701 5.82529 44.6116 6.54362L45.7134 9.84005H50.375C53.2283 9.84005 55.5417 12.3577 55.5417 15.463V18.2744C58.395 18.2744 60.7084 20.7921 60.7084 23.8973V56.229ZM6.45835 12.6515C5.03235 12.6515 3.87502 13.911 3.87502 15.463C3.87502 17.0149 5.03235 18.2744 6.45835 18.2744H10.9081H11.1523C11.1691 18.2674 11.1794 18.2519 11.1962 18.2449L25.3813 12.6515H6.45835ZM44.0174 12.9059L42.6457 8.79559H42.6444L39.9952 9.84005H39.9991L32.8768 12.6515H32.8639L18.6052 18.2744H45.8103L44.0174 12.9059ZM52.9584 15.463C52.9584 13.911 51.801 12.6515 50.375 12.6515H46.6512L48.5292 18.2744H52.9584V15.463ZM55.5417 21.0859H6.45835C5.51285 21.0859 4.6371 20.7893 3.87502 20.3057V56.229C3.87502 58.5583 5.61102 60.4462 7.75002 60.4462H54.25C56.3903 60.4462 58.125 58.5583 58.125 56.229V46.3889H52.9584C50.1051 46.3889 47.7917 43.8713 47.7917 40.766C47.7917 37.6608 50.1051 35.1431 52.9584 35.1431H58.125V23.8973C58.125 22.3454 56.9677 21.0859 55.5417 21.0859ZM58.125 43.5775V37.9546H52.9584C51.5324 37.9546 50.375 39.2141 50.375 40.766C50.375 42.318 51.5324 43.5775 52.9584 43.5775H58.125ZM52.9584 39.3603H55.5417V42.1718H52.9584V39.3603Z" fill="white"/>
</svg>
